<svg id="Capa_1" enable-background="new 0 0 512 512" height="15" viewBox="0 0 512 512" width="15"
     xmlns="http://www.w3.org/2000/svg">
    <g>
        <g id="XMLID_1_">
            <path fill="#6f6f6f" d="m502 440.001c-5.522 0-10-4.477-10-10v-260c0-16.542-13.458-30-30-30h-18.499c-5.522 0-10-4.477-10-10s4.478-10 10-10h18.499c27.57 0 50 22.43 50 50v260c0 5.523-4.478 10-10 10z"/>
            <path fill="#6f6f6f" d="m10 440.001c-5.522 0-10-4.477-10-10v-260c0-27.57 22.43-50 50-50h20c5.522 0 10 4.477 10 10s-4.478 10-10 10h-20c-16.542 0-30 13.458-30 30v260c0 5.523-4.478 10-10 10z"/>
            <g id="XMLID_4_">
                <path fill="#6f6f6f" d="m439.984 188.001c-5.522 0-10-4.477-10-10v-93.86l-64.141-64.14h-283.827v158c0 5.523-4.478 10-10 10s-10-4.477-10-10v-168c0-5.523 4.478-10 10-10h297.971c2.652 0 5.195 1.054 7.071 2.929l69.998 69.998c1.875 1.875 2.929 4.419 2.929 7.071v98.002c-.001 5.523-4.478 10-10.001 10z"/>
                <path fill="#6f6f6f" d="m439.984 89.999h-69.998c-5.522 0-10-4.477-10-10v-69.998c0-4.044 2.437-7.691 6.173-9.239 3.737-1.548 8.038-.692 10.898 2.167l69.998 69.998c2.859 2.86 3.715 7.161 2.168 10.898s-5.194 6.174-9.239 6.174zm-59.998-20h35.855l-35.855-35.856z"/>
            </g>
            <path fill="#6f6f6f" d="m462 512h-412c-27.57 0-50-22.43-50-50v-243.999c0-27.57 22.43-50 50-50h161c5.522 0 10 4.477 10 10s-4.478 10-10 10h-161c-16.542 0-30 13.458-30 30v243.999c0 16.542 13.458 30 30 30h412c16.542 0 30-13.458 30-30v-243.999c0-16.542-13.458-30-30-30h-161c-5.522 0-10-4.477-10-10s4.478-10 10-10h161c27.57 0 50 22.43 50 50v243.999c0 27.57-22.43 50-50 50z"/>
        </g>
        <circle fill="#6f6f6f" cx="255.956" cy="177.956" r="10.055"/>
    </g>
</svg>