<svg width="242" height="56" viewBox="0 0 242 56" fill="none" xmlns="http://www.w3.org/2000/svg">
<g clip-path="url(#clip0)">
<path d="M65.0859 41.4601H77.3446V37.5441H69.5159V31.9043H77.068V27.9883H69.5159V23.5148H77.3727V19.5988H65.0859V41.4601Z" fill="#006632"/>
<path d="M84.3671 18.573H80.209V41.4601H84.3671V18.573Z" fill="#006632"/>
<path d="M91.6518 27.1404H87.4937V41.4601H91.6518V27.1404Z" fill="#006632"/>
<path d="M109.906 27.1404H104.562L101.613 30.7379L98.8101 27.1404H93.6394L99.1008 33.7077L92.3315 41.4601H97.7085L101.613 36.6916L105.617 41.4601H110.919L104.276 33.7124L109.906 27.1404Z" fill="#006632"/>
<path d="M115.817 27.1404H111.664V41.4601H115.817V27.1404Z" fill="#006632"/>
<path d="M126.815 26.8219C126.042 26.8253 125.283 27.0232 124.607 27.3974C123.931 27.7715 123.36 28.3098 122.948 28.9626V27.1404H118.86V41.4601H123.018V34.6633C123.018 33.258 123.36 32.1853 124.031 31.4874C124.315 31.2023 124.656 30.9793 125.031 30.8326C125.406 30.6858 125.808 30.6185 126.21 30.6349C126.641 30.6245 127.068 30.721 127.453 30.9159L127.687 31.0424L128.657 27.2388L128.493 27.1685C127.964 26.9395 127.392 26.8215 126.815 26.8219Z" fill="#006632"/>
<path d="M152.195 32.4055C152.195 36.1529 150.789 37.9751 147.845 37.9751C144.901 37.9751 143.508 36.1529 143.508 32.4055V19.5988H139.074V33.2253C139.074 35.9468 139.861 38.1109 141.418 39.652C142.974 41.1931 145.135 41.9941 147.845 41.9941C150.554 41.9941 152.711 41.2119 154.272 39.652C155.833 38.0922 156.616 35.9468 156.616 33.2253V19.5988H152.181L152.195 32.4055Z" fill="#006632"/>
<path d="M174.406 27.1404H168.687L163.788 31.9605V18.573H159.63V41.4601H163.788V35.7501L169.142 41.4601H174.94L167.416 33.689L174.406 27.1404Z" fill="#006632"/>
<path d="M185.291 27.1685C184.761 26.9324 184.188 26.808 183.608 26.8032C182.836 26.8074 182.078 27.0057 181.403 27.3798C180.728 27.7539 180.158 28.2918 179.746 28.9439V27.1404H175.658V41.4601H179.816V34.6633C179.816 33.258 180.158 32.1854 180.828 31.4874C181.113 31.2023 181.454 30.9793 181.829 30.8326C182.204 30.6858 182.606 30.6185 183.008 30.6349C183.433 30.6274 183.853 30.7239 184.232 30.9159L184.466 31.0424L185.437 27.2388L185.291 27.1685Z" fill="#006632"/>
<path d="M196.758 28.6956C196.204 28.0542 195.516 27.5428 194.742 27.1979C193.969 26.853 193.128 26.683 192.281 26.7001C191.342 26.6769 190.41 26.8581 189.549 27.2309C188.688 27.6038 187.918 28.1596 187.293 28.8596C185.973 30.3578 185.276 32.3031 185.343 34.2979C185.291 36.296 185.996 38.24 187.316 39.741C187.93 40.4525 188.693 41.0203 189.551 41.404C190.409 41.7878 191.341 41.978 192.281 41.9613C193.138 41.9754 193.986 41.7937 194.762 41.43C195.538 41.0663 196.221 40.5303 196.758 39.8628V41.4461H200.855V27.1404H196.758V28.6956ZM195.736 31.5061C196.083 31.884 196.353 32.3269 196.528 32.8093C196.703 33.2917 196.781 33.804 196.758 34.3167C196.795 35.3455 196.44 36.3501 195.764 37.1272C195.429 37.4729 195.029 37.7478 194.586 37.9355C194.143 38.1232 193.667 38.22 193.186 38.22C192.704 38.22 192.228 38.1232 191.785 37.9355C191.342 37.7478 190.942 37.4729 190.607 37.1272C189.959 36.3337 189.605 35.3409 189.605 34.3167C189.605 33.2925 189.959 32.2997 190.607 31.5061C190.926 31.1551 191.318 30.8782 191.755 30.6953C192.193 30.5123 192.665 30.4278 193.139 30.4475C193.622 30.4326 194.103 30.5187 194.551 30.7001C194.999 30.8816 195.404 31.1546 195.74 31.5015L195.736 31.5061Z" fill="#006632"/>
<path d="M208.027 27.1404H203.874V41.4601H208.027V27.1404Z" fill="#006632"/>
<path d="M219.39 26.7001C218.585 26.6764 217.784 26.8322 217.046 27.1563C216.308 27.4804 215.652 27.9646 215.124 28.5738V27.1404H211.037V41.4601H215.171V34.1387C215.171 31.5202 216.109 30.2461 218.05 30.2461C219.686 30.2461 220.483 31.2345 220.483 33.2627V41.4601H224.641V32.6959C224.641 28.7237 222.869 26.7001 219.39 26.7001Z" fill="#006632"/>
<path d="M242 34.2792C242.017 33.2898 241.834 32.3071 241.463 31.3897C241.092 30.4723 240.539 29.639 239.839 28.9392C238.358 27.4926 236.369 26.6827 234.298 26.6827C232.227 26.6827 230.238 27.4926 228.757 28.9392C227.365 30.3742 226.586 32.2945 226.586 34.2933C226.586 36.292 227.365 38.2123 228.757 39.6473C229.477 40.3878 230.341 40.9718 231.297 41.3627C232.253 41.7537 233.28 41.9431 234.312 41.9192C237.955 41.9192 240.449 40.4015 241.733 37.4036L241.836 37.16L237.547 36.4667L237.476 36.5979C236.9 37.6987 235.864 38.2374 234.312 38.2374C233.882 38.2522 233.454 38.1816 233.051 38.0296C232.649 37.8777 232.281 37.6473 231.968 37.3521C231.354 36.7293 230.959 35.9236 230.843 35.0568H241.981L242 34.2792ZM234.312 30.1946C236.108 30.1946 237.223 30.8597 237.725 32.2228H231.049C231.318 31.59 231.775 31.0555 232.359 30.6925C232.943 30.3294 233.625 30.1555 234.312 30.1946Z" fill="#006632"/>
<path d="M91.6518 19.6832H87.4937V23.8334H91.6518V19.6832Z" fill="#006632"/>
<path d="M115.817 19.6832H111.664V23.8334H115.817V19.6832Z" fill="#006632"/>
<path d="M208.027 19.6832H203.874V23.8334H208.027V19.6832Z" fill="#006632"/>
<path d="M57.1168 6.69379H56.4511L55.5135 5.52273H55.3166V6.69379H54.7588V4.08935H55.7854C56.0207 4.0819 56.255 4.12172 56.4745 4.20646C56.6013 4.24729 56.7111 4.32847 56.7873 4.4376C56.8635 4.54672 56.9018 4.67778 56.8964 4.81072C56.8964 5.21357 56.6245 5.44778 56.0761 5.52273L57.1168 6.69379ZM56.3245 4.82009C56.3245 4.57651 56.137 4.45472 55.7479 4.45472H55.3166V5.2042H55.7292C56.137 5.19483 56.3245 5.06367 56.3245 4.80604V4.82009Z" fill="#006632"/>
<path d="M55.8086 7.62592C55.3935 7.62592 54.9876 7.50296 54.6424 7.27258C54.2971 7.04219 54.0279 6.71472 53.8688 6.33154C53.7097 5.94835 53.6679 5.52665 53.7485 5.1197C53.8292 4.71275 54.0287 4.33882 54.322 4.04515C54.6152 3.75148 54.989 3.55125 55.3961 3.46974C55.8031 3.38824 56.2253 3.42913 56.6091 3.58725C56.9929 3.74536 57.3212 4.01361 57.5526 4.3581C57.7839 4.70258 57.9079 5.10785 57.9088 5.5227C57.9088 6.0797 57.6877 6.61395 57.294 7.00825C56.9002 7.40254 56.3661 7.62468 55.8086 7.62592ZM55.8086 3.64901C55.4378 3.64901 55.0752 3.7589 54.7669 3.96478C54.4585 4.17067 54.2182 4.4633 54.0762 4.80567C53.9343 5.14804 53.8972 5.52478 53.9695 5.88824C54.0419 6.2517 54.2205 6.58556 54.4827 6.8476C54.745 7.10964 55.0791 7.2881 55.4428 7.36039C55.8066 7.43269 56.1836 7.39558 56.5262 7.25377C56.8689 7.11195 57.1617 6.8718 57.3678 6.56367C57.5738 6.25554 57.6838 5.89328 57.6838 5.5227C57.6844 5.27625 57.6363 5.0321 57.5424 4.80423C57.4484 4.57636 57.3104 4.36926 57.1362 4.19477C56.962 4.02029 56.7551 3.88185 56.5273 3.7874C56.2995 3.69294 56.0553 3.64432 55.8086 3.64432V3.64901Z" fill="#006632"/>
<path d="M25.8862 10.0571C27.9629 13.0971 29.8568 15.7531 30.5741 19.018C30.8961 20.2866 30.8677 21.6187 30.4921 22.8725C30.1165 24.1263 29.4077 25.2549 28.4411 26.138C25.68 28.8034 26.3878 28.6582 23.6361 26.1942C20.9593 23.7959 20.3968 20.7137 21.8594 17.4722C22.9704 14.9896 24.4471 12.6849 25.8862 10.0571Z" fill="#006632"/>
<path d="M24.5173 34.5322L24.0063 34.0872C23.5375 33.6843 21.9577 33.3658 20.256 33.0191C17.2605 32.4102 13.8431 31.7169 13.0883 29.9791C12.9593 29.6431 12.9166 29.2801 12.9641 28.9233C13.0116 28.5666 13.1478 28.2274 13.3602 27.9368C14.0634 26.8032 15.5166 26.1474 17.3449 26.1474C18.3411 26.1295 19.33 26.3206 20.2477 26.7084C21.1654 27.0961 21.9915 27.6719 22.6727 28.3985C23.3539 29.1251 23.875 29.9863 24.2024 30.9266C24.5299 31.867 24.6563 32.8655 24.5735 33.8576L24.5173 34.5322Z" fill="#7DB928"/>
<path d="M25.0471 0C33.7899 0.035319 42.4856 1.28067 50.8864 3.70054C51.1911 3.78486 51.613 4.16897 51.6271 4.45002C52.0443 15.3737 50.2207 25.8804 45.4157 35.7594C41.38 44.1846 34.8439 51.1622 26.6972 55.7424C26.4487 55.9191 26.1513 56.014 25.8463 56.014C25.5414 56.014 25.244 55.9191 24.9955 55.7424C14.1103 49.503 7.06453 40.2376 3.1877 28.4286C0.660953 20.7465 -0.220359 12.8535 0.0468473 4.80134C0.0123898 4.53046 0.0830721 4.25669 0.244369 4.03627C0.405666 3.81586 0.645325 3.66555 0.914096 3.61623C6.54968 1.7833 12.3952 0.672074 18.3106 0.309159C20.5514 0.168632 22.8016 0.103053 25.0471 0ZM25.3565 48.0977C25.7268 43.8819 25.9331 39.994 26.4581 36.1482C26.7294 34.2831 27.3193 32.4785 28.202 30.8129C29.9365 27.5339 34.1227 26.3769 37.0667 28.1476C37.8683 28.616 38.4449 29.2858 38.3464 30.2742C38.3345 30.7381 38.1756 31.1862 37.8925 31.554C37.6095 31.9219 37.2169 32.1905 36.7713 32.3212C36.277 32.4914 35.7729 32.6322 35.2618 32.7428C33.682 33.0379 32.0882 33.2955 30.5084 33.5859C29.4349 33.7827 28.8114 34.4104 28.8536 35.5393C28.8541 36.8319 28.9418 38.123 29.1161 39.4038C29.4161 41.1369 29.9083 42.8326 30.3537 44.7063C33.1212 42.2487 35.493 39.3795 37.3854 36.1997C42.2608 28.1194 44.4172 19.2616 44.8344 9.90715C44.8575 9.79784 44.8558 9.68476 44.8295 9.57618C44.8032 9.4676 44.7529 9.36628 44.6823 9.27962C44.6118 9.19295 44.5227 9.12315 44.4217 9.0753C44.3207 9.02746 44.2102 9.00279 44.0984 9.00309C41.0982 8.47846 38.112 7.84141 35.0978 7.47604C30.049 6.84835 24.958 6.46424 19.8717 7.02635C15.8073 7.49477 11.7617 8.15525 7.71145 8.74078C7.06922 8.83446 6.77389 9.12957 6.84889 9.87436C7.1911 12.7973 7.31768 15.7484 7.78646 18.6432C9.37564 28.1054 13.0884 36.537 19.9467 43.4182C21.5921 45.067 23.4719 46.4863 25.3565 48.0977Z" fill="#006632"/>
</g>
<defs>
<clipPath id="clip0">
<rect width="242" height="56" fill="white"/>
</clipPath>
</defs>
</svg>
