<svg width="157" height="38" viewBox="0 0 242 56" fill="none" xmlns="http://www.w3.org/2000/svg">
<g clip-path="url(#clip0)">
<path d="M65.0859 41.4601H77.3446V37.5441H69.5159V31.9043H77.068V27.9883H69.5159V23.5148H77.3727V19.5988H65.0859V41.4601Z" fill="#ffffff"/>
<path d="M84.3671 18.573H80.209V41.4601H84.3671V18.573Z" fill="#ffffff"/>
<path d="M91.6518 27.1404H87.4937V41.4601H91.6518V27.1404Z" fill="#ffffff"/>
<path d="M109.906 27.1404H104.562L101.613 30.7379L98.8101 27.1404H93.6394L99.1008 33.7077L92.3315 41.4601H97.7085L101.613 36.6916L105.617 41.4601H110.919L104.276 33.7124L109.906 27.1404Z" fill="#ffffff"/>
<path d="M115.817 27.1404H111.664V41.4601H115.817V27.1404Z" fill="#ffffff"/>
<path d="M126.815 26.8219C126.042 26.8253 125.283 27.0232 124.607 27.3974C123.931 27.7715 123.36 28.3098 122.948 28.9626V27.1404H118.86V41.4601H123.018V34.6633C123.018 33.258 123.36 32.1853 124.031 31.4874C124.315 31.2023 124.656 30.9793 125.031 30.8326C125.406 30.6858 125.808 30.6185 126.21 30.6349C126.641 30.6245 127.068 30.721 127.453 30.9159L127.687 31.0424L128.657 27.2388L128.493 27.1685C127.964 26.9395 127.392 26.8215 126.815 26.8219Z" fill="#ffffff"/>
<path d="M152.195 32.4055C152.195 36.1529 150.789 37.9751 147.845 37.9751C144.901 37.9751 143.508 36.1529 143.508 32.4055V19.5988H139.074V33.2253C139.074 35.9468 139.861 38.1109 141.418 39.652C142.974 41.1931 145.135 41.9941 147.845 41.9941C150.554 41.9941 152.711 41.2119 154.272 39.652C155.833 38.0922 156.616 35.9468 156.616 33.2253V19.5988H152.181L152.195 32.4055Z" fill="#ffffff"/>
<path d="M174.406 27.1404H168.687L163.788 31.9605V18.573H159.63V41.4601H163.788V35.7501L169.142 41.4601H174.94L167.416 33.689L174.406 27.1404Z" fill="#ffffff"/>
<path d="M185.291 27.1685C184.761 26.9324 184.188 26.808 183.608 26.8032C182.836 26.8074 182.078 27.0057 181.403 27.3798C180.728 27.7539 180.158 28.2918 179.746 28.9439V27.1404H175.658V41.4601H179.816V34.6633C179.816 33.258 180.158 32.1854 180.828 31.4874C181.113 31.2023 181.454 30.9793 181.829 30.8326C182.204 30.6858 182.606 30.6185 183.008 30.6349C183.433 30.6274 183.853 30.7239 184.232 30.9159L184.466 31.0424L185.437 27.2388L185.291 27.1685Z" fill="#ffffff"/>
<path d="M196.758 28.6956C196.204 28.0542 195.516 27.5428 194.742 27.1979C193.969 26.853 193.128 26.683 192.281 26.7001C191.342 26.6769 190.41 26.8581 189.549 27.2309C188.688 27.6038 187.918 28.1596 187.293 28.8596C185.973 30.3578 185.276 32.3031 185.343 34.2979C185.291 36.296 185.996 38.24 187.316 39.741C187.93 40.4525 188.693 41.0203 189.551 41.404C190.409 41.7878 191.341 41.978 192.281 41.9613C193.138 41.9754 193.986 41.7937 194.762 41.43C195.538 41.0663 196.221 40.5303 196.758 39.8628V41.4461H200.855V27.1404H196.758V28.6956ZM195.736 31.5061C196.083 31.884 196.353 32.3269 196.528 32.8093C196.703 33.2917 196.781 33.804 196.758 34.3167C196.795 35.3455 196.44 36.3501 195.764 37.1272C195.429 37.4729 195.029 37.7478 194.586 37.9355C194.143 38.1232 193.667 38.22 193.186 38.22C192.704 38.22 192.228 38.1232 191.785 37.9355C191.342 37.7478 190.942 37.4729 190.607 37.1272C189.959 36.3337 189.605 35.3409 189.605 34.3167C189.605 33.2925 189.959 32.2997 190.607 31.5061C190.926 31.1551 191.318 30.8782 191.755 30.6953C192.193 30.5123 192.665 30.4278 193.139 30.4475C193.622 30.4326 194.103 30.5187 194.551 30.7001C194.999 30.8816 195.404 31.1546 195.74 31.5015L195.736 31.5061Z" fill="#ffffff"/>
<path d="M208.027 27.1404H203.874V41.4601H208.027V27.1404Z" fill="#ffffff"/>
<path d="M219.39 26.7001C218.585 26.6764 217.784 26.8322 217.046 27.1563C216.308 27.4804 215.652 27.9646 215.124 28.5738V27.1404H211.037V41.4601H215.171V34.1387C215.171 31.5202 216.109 30.2461 218.05 30.2461C219.686 30.2461 220.483 31.2345 220.483 33.2627V41.4601H224.641V32.6959C224.641 28.7237 222.869 26.7001 219.39 26.7001Z" fill="#ffffff"/>
<path d="M242 34.2792C242.017 33.2898 241.834 32.3071 241.463 31.3897C241.092 30.4723 240.539 29.639 239.839 28.9392C238.358 27.4926 236.369 26.6827 234.298 26.6827C232.227 26.6827 230.238 27.4926 228.757 28.9392C227.365 30.3742 226.586 32.2945 226.586 34.2933C226.586 36.292 227.365 38.2123 228.757 39.6473C229.477 40.3878 230.341 40.9718 231.297 41.3627C232.253 41.7537 233.28 41.9431 234.312 41.9192C237.955 41.9192 240.449 40.4015 241.733 37.4036L241.836 37.16L237.547 36.4667L237.476 36.5979C236.9 37.6987 235.864 38.2374 234.312 38.2374C233.882 38.2522 233.454 38.1816 233.051 38.0296C232.649 37.8777 232.281 37.6473 231.968 37.3521C231.354 36.7293 230.959 35.9236 230.843 35.0568H241.981L242 34.2792ZM234.312 30.1946C236.108 30.1946 237.223 30.8597 237.725 32.2228H231.049C231.318 31.59 231.775 31.0555 232.359 30.6925C232.943 30.3294 233.625 30.1555 234.312 30.1946Z" fill="#ffffff"/>
<path d="M91.6518 19.6832H87.4937V23.8334H91.6518V19.6832Z" fill="#ffffff"/>
<path d="M115.817 19.6832H111.664V23.8334H115.817V19.6832Z" fill="#ffffff"/>
<path d="M208.027 19.6832H203.874V23.8334H208.027V19.6832Z" fill="#ffffff"/>
</g>
<defs>
<clipPath id="clip0">
<rect width="242" height="56" fill="white"/>
</clipPath>
</defs>
</svg>
